<svg xmlns="http://www.w3.org/2000/svg" version="1.1" xmlns:xlink="http://www.w3.org/1999/xlink" xmlns:svgjs="http://svgjs.dev/svgjs" width="1500" height="1687" viewBox="0 0 1500 1687"><g transform="matrix(1,0,0,1,0.001973437500396358,0)"><svg viewBox="0 0 320 360" data-background-color="#efefef" preserveAspectRatio="xMidYMid meet" height="1687" width="1500" xmlns="http://www.w3.org/2000/svg" xmlns:xlink="http://www.w3.org/1999/xlink"><g id="tight-bounds" transform="matrix(1,0,0,1,-0.00042100000007394556,0)"><svg viewBox="0 0 320 360" height="360" width="320"><g><svg></svg></g><g><svg viewBox="0 0 320 360" height="360" width="320"><g><path transform="translate(-9.31575,10.66434) scale(0.39811,0.39811)" d="M827.2 486c-0.2-21.2-13.6-38-13.8-59.2-0.1-21.2 13.1-46.8 12.9-68-6.7-20.1-24.7-31.9-31.4-52-6.7-20.1-2.1-48.6-8.7-68.7-12.6-17.1-33.4-22.7-45.9-39.7-12.6-17.1-17-45.6-29.5-62.6-17.2-12.3-38.7-11.3-56-23.6-17.2-12.3-30.2-38.1-47.5-50.4-20.2-6.4-40.3 1.3-60.5-5.2-20.2-6.4-40.5-26.9-60.7-33.3-21.2 0.2-38 13.6-59.2 13.8-21.2 0.1-46.8-13.1-68-12.9-20.1 6.7-31.9 24.7-52 31.4-20.1 6.7-48.6 2.1-68.7 8.8-17.1 12.6-22.7 33.4-39.7 45.9-17.1 12.6-45.6 17-62.6 29.6-12.3 17.2-11.3 38.7-23.6 56-12.3 17.2-38.1 30.2-50.4 47.5-6.4 20.2 1.2 40.3-5.2 60.5-6.4 20.2-26.9 40.5-33.3 60.7 0.1 21.2 13.6 38 13.8 59.2 0.1 21.2-13.1 46.8-12.9 68 6.7 20.1 24.7 31.9 31.4 52 6.7 20.1 2.1 48.6 8.8 68.7 12.6 17.1 33.4 22.7 45.9 39.8 12.6 17.1 17 45.6 29.5 62.6 17.2 12.3 38.7 11.3 56 23.6 17.2 12.3 30.2 38.1 47.5 50.4 20.2 6.4 40.3-1.2 60.5 5.2 20.2 6.4 40.5 26.9 60.7 33.3 21.2-0.2 38-13.6 59.2-13.8 21.2-0.1 46.8 13.1 68 12.9 20.1-6.7 31.9-24.7 52-31.4 20.1-6.7 48.6-2.1 68.7-8.8 17.1-12.6 22.7-33.4 39.8-45.9 17.1-12.6 45.6-17 62.6-29.5 12.3-17.2 11.3-38.7 23.6-56 12.3-17.2 38.1-30.2 50.4-47.5 6.4-20.2-1.2-40.3 5.2-60.5 6.2-20.4 26.7-40.7 33.1-60.9zM792 544.4c-9.1 17.9-31.4 33.8-40.6 51.7-9.1 17.9-5.1 37.9-14.2 55.8-14.2 14.2-40.3 22.4-54.6 36.6-14.2 14.2-16.5 34.5-30.8 48.7-17.9 9.1-45.3 8.8-63.2 18-17.9 9.1-26.4 27.7-44.3 36.8-19.9 3.1-45.8-5.6-65.7-2.5-19.9 3.1-33.7 18.2-53.5 21.3-19.9-3.1-41.8-19.5-61.7-22.6-19.9-3.2-37.6 6.9-57.5 3.7-17.9-9.1-33.8-31.5-51.7-40.6-17.9-9.1-37.9-5.1-55.9-14.2-14.2-14.2-22.4-40.3-36.6-54.6-14.2-14.2-34.5-16.6-48.7-30.8-9.1-17.9-8.8-45.3-18-63.2-9.1-17.9-27.7-26.4-36.8-44.3-3.1-19.9 5.6-45.8 2.5-65.7-3.2-19.9-18.2-33.7-21.3-53.5 3.2-19.9 19.5-41.8 22.6-61.7 3.1-19.9-6.9-37.6-3.7-57.5 9.1-17.9 31.5-33.8 40.6-51.7 9.1-17.9 5.1-37.9 14.2-55.9 14.2-14.2 40.3-22.4 54.6-36.6 14.2-14.2 16.6-34.5 30.8-48.7 17.9-9.1 45.3-8.8 63.2-18 17.9-9.1 26.4-27.7 44.3-36.8 19.9-3.1 45.8 5.6 65.7 2.5 19.9-3.1 33.7-18.2 53.5-21.3 19.9 3.1 41.8 19.5 61.7 22.6 19.9 3.2 37.6-6.9 57.5-3.7 17.9 9.1 33.8 31.5 51.7 40.6 17.9 9.1 37.9 5.1 55.9 14.2 14.2 14.2 22.4 40.3 36.6 54.6 14.2 14.2 34.5 16.6 48.7 30.8 9.1 17.9 8.8 45.3 18 63.2 9.1 17.9 27.7 26.4 36.8 44.3 3.2 19.9-5.6 45.8-2.5 65.7 3.1 19.9 18.2 33.7 21.3 53.5-3.1 19.9-19.5 41.8-22.6 61.7-3.1 19.9 6.9 37.7 3.7 57.6z" fill="#d94e28" fill-rule="nonzero" stroke="none" stroke-width="1" stroke-linecap="butt" stroke-linejoin="miter" stroke-miterlimit="10" stroke-dasharray="" stroke-dashoffset="0" font-family="none" font-weight="none" font-size="none" text-anchor="none" style="mix-blend-mode: normal" data-fill-palette-color="tertiary"></path></g><g transform="matrix(1,0,0,1,48,106.28456631059896)"><svg viewBox="0 0 224 147.43086737880208" height="147.43086737880208" width="224"><g><svg viewBox="0 0 224 147.43086737880208" height="147.43086737880208" width="224"><g><svg viewBox="0 0 224 147.43086737880208" height="147.43086737880208" width="224"><g transform="matrix(1,0,0,1,0,108.95726444610533)"><svg viewBox="0 0 224 38.473602932696735" height="38.473602932696735" width="224"><g id="textblocktransform"><svg viewBox="0 0 224 38.473602932696735" height="38.473602932696735" width="224" id="textblock"><g><svg viewBox="0 0 224 17.928688496282597" height="17.928688496282597" width="224"><g transform="matrix(1,0,0,1,0,0)"><svg width="224" viewBox="1.75 -36.25 459.102380944055 36.75" height="17.928688496282597" data-palette-color="#d94e28"><path d="M12.35-32.1Q16.75-32.1 19-30.18 21.25-28.25 21.25-25.15L21.25-25.15Q21.25-23.7 20.75-22.58 20.25-21.45 19.48-20.63 18.7-19.8 17.8-19.25 16.9-18.7 16.15-18.35L16.15-18.35Q19.3-17.4 21-15.03 22.7-12.65 22.7-9.9L22.7-9.9Q22.7-8 22.13-6.18 21.55-4.35 20.2-2.9 18.85-1.45 16.63-0.58 14.4 0.3 11.1 0.3L11.1 0.3Q8.85 0.3 6.45-0.48 4.05-1.25 1.75-2.3L1.75-2.3 3.45-6.45Q5.7-5.45 7.45-4.75 9.2-4.05 10.95-4.05L10.95-4.05Q12.1-4.05 13.18-4.4 14.25-4.75 15.08-5.45 15.9-6.15 16.4-7.25 16.9-8.35 16.9-9.8L16.9-9.8Q16.9-12.1 15.55-13.53 14.2-14.95 12.4-14.95L12.4-14.95Q11.55-14.95 10.73-14.88 9.9-14.8 9.22-14.68 8.55-14.55 8.1-14.45 7.65-14.35 7.55-14.35L7.55-14.35 6-18.25Q7.8-18.85 9.47-19.43 11.15-20 12.45-20.68 13.75-21.35 14.53-22.3 15.3-23.25 15.3-24.6L15.3-24.6Q15.3-26.15 14.3-26.95 13.3-27.75 11.55-27.75L11.55-27.75Q10.6-27.75 9.8-27.63 9-27.5 8.18-27.23 7.35-26.95 6.43-26.6 5.5-26.25 4.35-25.8L4.35-25.8 2.4-29.65Q3.65-30.2 4.78-30.65 5.9-31.1 7.08-31.43 8.25-31.75 9.53-31.93 10.8-32.1 12.35-32.1L12.35-32.1ZM28.5 0L28.5-33.85Q28.85-33.85 30-33.88 31.15-33.9 32.6-33.9 34.05-33.9 35.6-33.93 37.15-33.95 38.3-33.95L38.3-33.95Q46.8-33.95 50.9-29.73 55-25.5 55-17.15L55-17.15Q55-8.8 50.8-4.35 46.6 0.1 37.65 0.1L37.65 0.1Q36.1 0.1 34.62 0.08 33.15 0.05 31.92 0.05 30.7 0.05 29.8 0.03 28.9 0 28.5 0L28.5 0ZM37.6-29.5Q36.45-29.5 35.67-29.48 34.9-29.45 34.45-29.45L34.45-29.45 34.45-4.4Q35-4.35 35.87-4.35 36.75-4.35 38.4-4.35L38.4-4.35Q43.65-4.35 46.1-7.43 48.55-10.5 48.55-16.6L48.55-16.6Q48.55-19.5 47.97-21.88 47.4-24.25 46.07-25.95 44.75-27.65 42.67-28.58 40.6-29.5 37.6-29.5L37.6-29.5ZM70.39-33.85L93.99-33.85 93.24-29.35 84.84-29.35 84.84 0 78.94 0 78.94-29.35 70.39-29.35 70.39-33.85ZM103.49-36.25L103.49-21.7Q104.94-23.6 106.97-24.45 108.99-25.3 111.24-25.3L111.24-25.3Q115.09-25.3 116.82-22.98 118.54-20.65 118.54-16.7L118.54-16.7 118.54 0 112.84 0 112.84-16.3Q112.84-18.4 112.09-19.63 111.34-20.85 109.54-20.85L109.54-20.85Q108.49-20.85 107.42-20.3 106.34-19.75 105.47-18.73 104.59-17.7 104.04-16.3 103.49-14.9 103.49-13.2L103.49-13.2 103.49 0 97.79 0 97.79-35.25 103.49-36.25ZM135.94-19.7Q135.04-19.7 134.14-19.25 133.24-18.8 132.54-18.03 131.84-17.25 131.39-16.15 130.94-15.05 130.94-13.7L130.94-13.7 130.94 0 125.24 0 125.24-12.6Q125.24-15.6 124.84-17.63 124.44-19.65 123.99-20.9L123.99-20.9Q123.44-22.35 122.79-23.25L122.79-23.25 127.29-25.05Q127.74-24.5 128.24-23.7L128.24-23.7Q128.64-23 129.04-22.05 129.44-21.1 129.69-19.8L129.69-19.8Q130.69-22.7 132.59-23.98 134.49-25.25 136.89-25.25L136.89-25.25Q138.04-25.25 139.04-24.98 140.04-24.7 139.99-24.7L139.99-24.7 138.39-19.15Q138.44-19.15 137.81-19.43 137.19-19.7 135.94-19.7L135.94-19.7ZM140.24-11.85Q140.24-15.2 141.16-17.75 142.09-20.3 143.71-22.03 145.34-23.75 147.54-24.63 149.74-25.5 152.29-25.5L152.29-25.5Q154.54-25.5 156.11-24.95 157.69-24.4 158.69-23.45 159.69-22.5 160.16-21.2 160.64-19.9 160.64-18.4L160.64-18.4Q160.64-16.6 159.64-14.98 158.64-13.35 156.76-12.13 154.89-10.9 152.24-10.18 149.59-9.45 146.29-9.4L146.29-9.4Q146.44-8.25 146.76-7.23 147.09-6.2 147.71-5.43 148.34-4.65 149.34-4.2 150.34-3.75 151.84-3.75L151.84-3.75Q152.94-3.75 154.19-4 155.44-4.25 156.49-4.6L156.49-4.6Q157.74-5 158.94-5.5L158.94-5.5 160.44-1.95Q159.14-1.3 157.64-0.8L157.64-0.8Q156.34-0.35 154.64 0 152.94 0.35 151.04 0.35L151.04 0.35Q148.14 0.35 146.09-0.53 144.04-1.4 142.74-3 141.44-4.6 140.84-6.85 140.24-9.1 140.24-11.85L140.24-11.85ZM151.84-21.6Q150.19-21.6 149.11-20.83 148.04-20.05 147.39-18.82 146.74-17.6 146.46-16.07 146.19-14.55 146.14-13L146.14-13Q148.54-13.1 150.21-13.63 151.89-14.15 152.94-14.93 153.99-15.7 154.46-16.6 154.94-17.5 154.94-18.4L154.94-18.4Q154.94-19.85 154.09-20.73 153.24-21.6 151.84-21.6L151.84-21.6ZM185.48-23.85L185.48-12.05Q185.48-9.05 185.86-7.03 186.23-5 186.68-3.75L186.68-3.75Q187.23-2.25 187.88-1.4L187.88-1.4 183.43 0.4Q182.78-0.25 182.23-1.15L182.23-1.15Q181.78-1.95 181.38-3.08 180.98-4.2 180.88-5.75L180.88-5.75Q180.03-2.75 178.16-1.23 176.28 0.3 173.08 0.3L173.08 0.3Q170.73 0.3 169.01-0.58 167.28-1.45 166.13-3.08 164.98-4.7 164.43-7 163.88-9.3 163.88-12.1L163.88-12.1Q163.88-14.95 164.76-17.38 165.63-19.8 167.21-21.55 168.78-23.3 170.98-24.3 173.18-25.3 175.83-25.3L175.83-25.3Q177.33-25.3 178.96-25.08 180.58-24.85 181.98-24.6 183.38-24.35 184.36-24.13 185.33-23.9 185.48-23.85L185.48-23.85ZM174.03-3.7Q175.28-3.7 176.33-4.55 177.38-5.4 178.16-6.78 178.93-8.15 179.36-9.93 179.78-11.7 179.78-13.55L179.78-13.55 179.78-20.75Q179.28-20.9 178.28-21.1 177.28-21.3 176.48-21.3L176.48-21.3Q174.58-21.3 173.36-20.65 172.13-20 171.38-18.85 170.63-17.7 170.33-16.1 170.03-14.5 170.03-12.6L170.03-12.6Q170.03-10.85 170.13-9.25 170.23-7.65 170.66-6.4 171.08-5.15 171.88-4.42 172.68-3.7 174.03-3.7L174.03-3.7ZM214.68-1.4L210.23 0.4Q210.13 0.35 209.78-0.08 209.43-0.5 209.01-1.25 208.58-2 208.18-3.13 207.78-4.25 207.68-5.75L207.68-5.75Q206.83-2.75 204.96-1.23 203.08 0.3 199.88 0.3L199.88 0.3Q197.53 0.3 195.81-0.58 194.08-1.45 192.93-3.08 191.78-4.7 191.23-7 190.68-9.3 190.68-12.1L190.68-12.1Q190.68-14.95 191.56-17.38 192.43-19.8 194.01-21.55 195.58-23.3 197.78-24.3 199.98-25.3 202.63-25.3L202.63-25.3Q203.53-25.3 204.56-25.2 205.58-25.1 206.58-24.95L206.58-24.95 206.58-36.25 212.28-35.25 212.28-12.05Q212.28-9.05 212.63-7.08 212.98-5.1 213.43-3.88 213.88-2.65 214.26-2.1 214.63-1.55 214.68-1.4L214.68-1.4ZM200.83-3.75Q202.08-3.75 203.13-4.6 204.18-5.45 204.96-6.83 205.73-8.2 206.16-9.95 206.58-11.7 206.58-13.55L206.58-13.55 206.58-20.75Q206.08-20.9 205.08-21.1 204.08-21.3 203.28-21.3L203.28-21.3Q201.38-21.3 200.16-20.65 198.93-20 198.18-18.85 197.43-17.7 197.13-16.1 196.83-14.5 196.83-12.6L196.83-12.6Q196.83-10.85 196.93-9.25 197.03-7.65 197.46-6.43 197.88-5.2 198.68-4.48 199.48-3.75 200.83-3.75L200.83-3.75ZM253.63-30.7L250.58-27.05Q249.38-28.35 248.05-29.03 246.73-29.7 244.98-29.7L244.98-29.7Q242.83-29.7 241.35-28.73 239.88-27.75 238.98-26.03 238.08-24.3 237.68-22 237.28-19.7 237.28-17.05L237.28-17.05Q237.28-14.4 237.65-12.1 238.03-9.8 238.95-8.05 239.88-6.3 241.45-5.3 243.03-4.3 245.43-4.3L245.43-4.3Q246.58-4.3 247.63-4.5 248.68-4.7 249.55-4.93 250.43-5.15 251-5.35 251.58-5.55 251.73-5.6L251.73-5.6 253.13-1.4 252.48-1.15Q251.83-0.9 250.65-0.58 249.48-0.25 247.85 0.03 246.23 0.3 244.28 0.3L244.28 0.3Q237.58 0.3 234.2-3.98 230.83-8.25 230.83-16.5L230.83-16.5Q230.83-20.45 231.73-23.73 232.63-27 234.45-29.35 236.28-31.7 239.05-33 241.83-34.3 245.58-34.3L245.58-34.3Q248.58-34.3 250.5-33.2 252.43-32.1 253.63-30.7L253.63-30.7ZM271.97-12.7L271.97-24.9 277.67-24.9 277.67-12.05Q277.67-9.05 278.05-7.03 278.42-5 278.87-3.75L278.87-3.75Q279.42-2.25 280.07-1.4L280.07-1.4 275.62 0.4Q275.02-0.15 274.52-1L274.52-1Q274.12-1.7 273.7-2.73 273.27-3.75 273.12-5.15L273.12-5.15Q271.77-2.2 269.32-0.95 266.87 0.3 264.22 0.3L264.22 0.3Q260.27 0.3 258.6-2 256.92-4.3 256.92-8.3L256.92-8.3 256.92-24.9 262.62-24.9 262.62-8.4Q262.62-6.3 263.37-5.1 264.12-3.9 265.92-3.9L265.92-3.9Q267.02-3.9 268.1-4.53 269.17-5.15 270.05-6.3 270.92-7.45 271.45-9.08 271.97-10.7 271.97-12.7L271.97-12.7ZM291.97-25.5L291.97-25.5Q293.42-25.5 294.82-25.2 296.22-24.9 297.32-24.5L297.32-24.5Q298.62-24.05 299.72-23.55L299.72-23.55 298.02-19.65Q297.02-20.1 296.02-20.45L296.02-20.45Q295.17-20.75 294.15-21.03 293.12-21.3 292.12-21.3L292.12-21.3Q290.97-21.3 290.15-20.75 289.32-20.2 289.32-19.1L289.32-19.1Q289.32-16.25 293.47-14.65L293.47-14.65Q295.02-14.05 296.27-13.38 297.52-12.7 298.4-11.8 299.27-10.9 299.72-9.73 300.17-8.55 300.17-6.95L300.17-6.95Q300.17-5.55 299.6-4.2 299.02-2.85 297.9-1.8 296.77-0.75 295.15-0.13 293.52 0.5 291.47 0.5L291.47 0.5Q289.82 0.5 288.22 0.13 286.62-0.25 285.35-0.7 284.07-1.15 283.32-1.55L283.32-1.55 282.57-1.9 284.42-6.1 285.07-5.75Q285.72-5.35 286.72-4.9 287.72-4.45 288.87-4.08 290.02-3.7 290.97-3.7L290.97-3.7Q292.72-3.7 293.57-4.4 294.42-5.1 294.42-6.25L294.42-6.25Q294.42-7.55 293.5-8.63 292.57-9.7 290.72-10.4L290.72-10.4Q286.87-11.85 285.2-13.7 283.52-15.55 283.52-18.5L283.52-18.5Q283.52-19.9 284.17-21.18 284.82-22.45 285.95-23.43 287.07-24.4 288.62-24.95 290.17-25.5 291.97-25.5ZM302.47-20.85L302.47-24.9 306.97-24.9 307.97-30.75 312.67-31.8 312.67-24.9 318.82-24.9 318.12-20.85 312.67-20.85 312.67-6.05Q312.67-4.75 313.37-4.38 314.07-4 314.92-4L314.92-4Q315.62-4 316.32-4.1 317.02-4.2 317.57-4.35L317.57-4.35Q318.22-4.5 318.82-4.7L318.82-4.7 319.77-0.95 319.32-0.8Q318.87-0.6 317.99-0.38 317.12-0.15 315.94 0.03 314.77 0.2 313.37 0.2L313.37 0.2Q311.97 0.2 310.79-0.1 309.62-0.4 308.77-1.07 307.92-1.75 307.44-2.8 306.97-3.85 306.97-5.4L306.97-5.4 306.97-20.85 302.47-20.85ZM332.42-25.5Q338.17-25.5 340.77-22.1 343.37-18.7 343.37-12.75L343.37-12.75Q343.37-9.95 342.67-7.53 341.97-5.1 340.54-3.33 339.12-1.55 336.97-0.53 334.82 0.5 331.97 0.5L331.97 0.5Q329.12 0.5 327.04-0.38 324.97-1.25 323.62-2.9 322.27-4.55 321.64-6.9 321.02-9.25 321.02-12.2L321.02-12.2Q321.02-15.05 321.72-17.48 322.42-19.9 323.84-21.68 325.27-23.45 327.42-24.48 329.57-25.5 332.42-25.5L332.42-25.5ZM331.92-21.3Q330.47-21.3 329.54-20.65 328.62-20 328.09-18.82 327.57-17.65 327.37-16.07 327.17-14.5 327.17-12.7L327.17-12.7Q327.17-10.85 327.39-9.2 327.62-7.55 328.22-6.33 328.82-5.1 329.84-4.4 330.87-3.7 332.47-3.7L332.47-3.7Q333.92-3.7 334.84-4.35 335.77-5 336.29-6.18 336.82-7.35 337.02-8.9 337.22-10.45 337.22-12.25L337.22-12.25Q337.22-14.1 336.99-15.75 336.77-17.4 336.17-18.65 335.57-19.9 334.54-20.6 333.52-21.3 331.92-21.3L331.92-21.3ZM382.56 0L376.91 0 376.91-16.3Q376.91-18.4 376.26-19.63 375.61-20.85 374.01-20.85L374.01-20.85Q373.06-20.85 372.09-20.33 371.11-19.8 370.31-18.8 369.51-17.8 369.01-16.4 368.51-15 368.51-13.3L368.51-13.3 368.51 0 362.86 0 362.86-16.3Q362.86-18.4 362.21-19.63 361.56-20.85 359.96-20.85L359.96-20.85Q358.96-20.85 357.99-20.28 357.01-19.7 356.24-18.6 355.46-17.5 354.99-15.93 354.51-14.35 354.51-12.4L354.51-12.4 354.51 0 348.81 0 348.81-12.6Q348.81-15.6 348.41-17.63 348.01-19.65 347.56-20.9L347.56-20.9Q347.01-22.35 346.36-23.25L346.36-23.25 350.86-25.05Q351.36-24.5 351.86-23.7L351.86-23.7Q352.26-23 352.66-21.98 353.06-20.95 353.31-19.65L353.31-19.65Q354.56-22.65 356.84-23.98 359.11-25.3 361.66-25.3L361.66-25.3Q364.21-25.3 365.64-24 367.06-22.7 367.76-20.65L367.76-20.65Q369.11-23.15 371.24-24.23 373.36-25.3 375.71-25.3L375.71-25.3Q377.66-25.3 378.99-24.68 380.31-24.05 381.09-22.93 381.86-21.8 382.21-20.23 382.56-18.65 382.56-16.7L382.56-16.7 382.56 0ZM394.06 0.2Q391.41 0.2 390.01-1.38 388.61-2.95 388.61-5.45L388.61-5.45 388.61-24.9 394.31-24.9 394.31-5.95Q394.31-4.8 394.66-4.4 395.01-4 395.71-4L395.71-4Q395.91-4 396.14-4 396.36-4 396.56-4.05L396.56-4.05Q396.76-4.05 397.01-4.1L397.01-4.1 397.61-0.5Q397.26-0.3 396.71-0.15L396.71-0.15Q396.26 0 395.59 0.1 394.91 0.2 394.06 0.2L394.06 0.2ZM391.56-36Q393.16-36 394.01-35.05 394.86-34.1 394.86-32.6L394.86-32.6Q394.86-31.1 393.99-30.1 393.11-29.1 391.41-29.1L391.41-29.1Q389.81-29.1 388.94-30.08 388.06-31.05 388.06-32.45L388.06-32.45Q388.06-34 388.94-35 389.81-36 391.56-36L391.56-36ZM418.01 0L399.86 0 399.86-3.4 410.91-20.9Q408.36-20.75 405.86-20.75L405.86-20.75 400.96-20.75 400.26-24.9 417.56-24.9 417.56-21.5 406.66-4Q408.91-4.15 411.16-4.15L411.16-4.15 418.01-4.15 418.01 0ZM420.51-11.85Q420.51-15.2 421.43-17.75 422.36-20.3 423.98-22.03 425.61-23.75 427.81-24.63 430.01-25.5 432.56-25.5L432.56-25.5Q434.81-25.5 436.38-24.95 437.96-24.4 438.96-23.45 439.96-22.5 440.43-21.2 440.91-19.9 440.91-18.4L440.91-18.4Q440.91-16.6 439.91-14.98 438.91-13.35 437.03-12.13 435.16-10.9 432.51-10.18 429.86-9.45 426.56-9.4L426.56-9.4Q426.71-8.25 427.03-7.23 427.36-6.2 427.98-5.43 428.61-4.65 429.61-4.2 430.61-3.75 432.11-3.75L432.11-3.75Q433.21-3.75 434.46-4 435.71-4.25 436.76-4.6L436.76-4.6Q438.01-5 439.21-5.5L439.21-5.5 440.71-1.95Q439.41-1.3 437.91-0.8L437.91-0.8Q436.61-0.35 434.91 0 433.21 0.35 431.31 0.35L431.31 0.35Q428.41 0.35 426.36-0.53 424.31-1.4 423.01-3 421.71-4.6 421.11-6.85 420.51-9.1 420.51-11.85L420.51-11.85ZM432.11-21.6Q430.46-21.6 429.38-20.83 428.31-20.05 427.66-18.82 427.01-17.6 426.73-16.07 426.46-14.55 426.41-13L426.41-13Q428.81-13.1 430.48-13.63 432.16-14.15 433.21-14.93 434.26-15.7 434.73-16.6 435.21-17.5 435.21-18.4L435.21-18.4Q435.21-19.85 434.36-20.73 433.51-21.6 432.11-21.6L432.11-21.6ZM456.8-19.7Q455.9-19.7 455-19.25 454.1-18.8 453.4-18.03 452.7-17.25 452.25-16.15 451.8-15.05 451.8-13.7L451.8-13.7 451.8 0 446.1 0 446.1-12.6Q446.1-15.6 445.7-17.63 445.3-19.65 444.85-20.9L444.85-20.9Q444.3-22.35 443.65-23.25L443.65-23.25 448.15-25.05Q448.6-24.5 449.1-23.7L449.1-23.7Q449.5-23 449.9-22.05 450.3-21.1 450.55-19.8L450.55-19.8Q451.55-22.7 453.45-23.98 455.35-25.25 457.75-25.25L457.75-25.25Q458.9-25.25 459.9-24.98 460.9-24.7 460.85-24.7L460.85-24.7 459.25-19.15Q459.3-19.15 458.68-19.43 458.05-19.7 456.8-19.7L456.8-19.7Z" opacity="1" transform="matrix(1,0,0,1,0,0)" fill="#d94e28" class="wordmark-text-0" data-fill-palette-color="primary" id="text-0"></path></svg></g></svg></g><g transform="matrix(1,0,0,1,61.17768962942356,20.54491443641414)"><svg viewBox="0 0 101.64462074115288 17.928688496282597" height="17.928688496282597" width="101.64462074115288"><g transform="matrix(1,0,0,1,0,0)"><svg width="101.64462074115288" viewBox="0.93 -33.74 305.57 53.910000000000004" height="17.928688496282597" data-palette-color="#d94e28"><path d="M3.71-1.86L1.86-24.37Q1.76-24.46 1.61-24.71 1.46-24.95 1.32-25.27 1.17-25.59 1.05-25.85 0.93-26.12 0.93-26.27L0.93-26.27Q0.93-26.71 1.32-26.95 1.71-27.2 2.2-27.25 2.69-27.29 3.15-27.29 3.61-27.29 3.71-27.29L3.71-27.29Q3.86-27.29 4.13-27.27 4.39-27.25 4.71-27.22 5.03-27.2 5.27-27.17 5.52-27.15 5.62-27.15L5.62-27.15Q7.23-26.56 9.3-25.78 11.38-25 13.57-23.97 15.77-22.95 17.87-21.66 19.97-20.36 21.63-18.73 23.29-17.09 24.32-15.14 25.34-13.18 25.34-10.79L25.34-10.79Q25.34-8.74 24.56-7.1 23.78-5.47 22.49-4.27 21.19-3.08 19.48-2.22 17.77-1.37 15.99-0.85 14.21-0.34 12.4-0.1 10.6 0.15 9.03 0.15L9.03 0.15Q8.69 0.15 7.86 0.12 7.03 0.1 6.15 0.05 5.27 0 4.57-0.02 3.86-0.05 3.81-0.05L3.81-0.05 3.71-1.86ZM4.64-24.61L4.64-24.61Q4.64-24.51 4.64-24.22 4.64-23.93 4.66-23.56 4.69-23.19 4.69-22.9 4.69-22.61 4.69-22.46L4.69-22.46Q4.74-21.73 4.81-20.12 4.88-18.51 4.96-16.46 5.03-14.4 5.15-12.18 5.27-9.96 5.37-7.93 5.47-5.91 5.54-4.27 5.62-2.64 5.62-1.86L5.62-1.86Q5.91-1.86 6.57-1.83 7.23-1.81 7.96-1.78 8.69-1.76 9.35-1.73 10.01-1.71 10.3-1.71L10.3-1.71Q12.55-1.71 14.75-2.27 16.94-2.83 18.68-3.98 20.41-5.13 21.51-6.96 22.61-8.79 22.61-11.38L22.61-11.38Q22.61-13.28 21.73-15.01 20.85-16.75 19.41-18.21 17.97-19.68 16.11-20.85 14.26-22.02 12.28-22.88 10.3-23.73 8.33-24.17 6.35-24.61 4.64-24.61ZM27.54-11.47L27.54-11.47Q27.54-12.94 28.17-14.72 28.81-16.5 29.9-18.04 31-19.58 32.39-20.63 33.79-21.68 35.3-21.68L35.3-21.68Q36.13-21.68 36.94-21.34 37.74-21 38.5-20.43 39.26-19.87 39.87-19.17 40.48-18.46 40.82-17.68 41.16-16.89 41.18-16.16 41.21-15.43 40.77-14.89L40.77-14.89 30.47-12.99Q30.27-12.94 30.12-12.52 29.98-12.11 29.88-11.47 29.78-10.84 29.71-10.08 29.64-9.33 29.59-8.62 29.54-7.91 29.54-7.35 29.54-6.79 29.54-6.49L29.54-6.49Q29.54-5.13 30.2-4.27 30.86-3.42 31.88-2.98 32.91-2.54 34.2-2.39 35.5-2.25 36.77-2.25 38.03-2.25 39.16-2.34 40.28-2.44 41.01-2.44L41.01-2.44Q41.01-2.25 40.87-2 40.72-1.76 40.52-1.54 40.33-1.32 40.13-1.15 39.94-0.98 39.89-0.93L39.89-0.93Q39.5-0.83 38.69-0.66 37.89-0.49 36.98-0.34 36.08-0.2 35.3-0.1 34.52 0 34.23 0L34.23 0Q32.71 0.29 31.59-0.05 30.47-0.39 29.68-1.22 28.9-2.05 28.42-3.25 27.93-4.44 27.68-5.81 27.44-7.18 27.41-8.64 27.39-10.11 27.54-11.47ZM34.62-19.82L34.62-19.82Q34.18-19.82 33.47-19.36 32.76-18.9 32.15-18.19 31.54-17.48 31.13-16.67 30.71-15.87 30.86-15.28L30.86-15.28Q32.13-15.14 33.49-15.33 34.86-15.53 35.98-15.94 37.11-16.36 37.84-16.92 38.57-17.48 38.55-18.07 38.52-18.65 37.62-19.12 36.72-19.58 34.62-19.82ZM46.24-3.96L46.24-3.96Q47.11-3.96 47.87-3.61 48.63-3.27 49.36-2.86 50.09-2.44 50.85-2.12 51.61-1.81 52.49-1.81L52.49-1.81Q53.51-1.81 54.61-2.17 55.71-2.54 56.64-3.2 57.56-3.86 58.15-4.81 58.74-5.76 58.74-6.88L58.74-6.88Q58.78-7.23 58.76-7.71 58.74-8.2 58.44-8.72 58.15-9.23 57.47-9.69 56.78-10.16 55.49-10.4 54.19-10.64 52.24-10.67 50.29-10.69 47.41-10.3L47.41-10.3Q46.67-10.3 45.99-10.72 45.31-11.13 44.77-11.74 44.23-12.35 43.89-13.06 43.55-13.77 43.55-14.4L43.55-14.4Q43.55-16.31 44.36-17.5 45.16-18.7 46.43-19.41 47.7-20.12 49.26-20.41 50.83-20.7 52.44-20.7L52.44-20.7Q53.17-20.7 54.12-20.63 55.07-20.56 55.88-20.24 56.68-19.92 57.25-19.24 57.81-18.55 57.81-17.33L57.81-17.33Q57.71-16.5 57.54-16.33 57.37-16.16 57.05-16.43 56.73-16.7 56.29-17.19 55.85-17.68 55.24-18.14 54.63-18.6 53.78-18.85 52.92-19.09 51.85-18.85L51.85-18.85Q50.73-18.85 49.6-18.63 48.48-18.41 47.58-17.87 46.67-17.33 46.11-16.41 45.55-15.48 45.55-14.06L45.55-14.06Q45.55-13.33 46.21-13.06 46.87-12.79 47.97-12.79 49.07-12.79 50.46-12.87 51.85-12.94 53.32-12.94 54.78-12.94 56.15-12.72 57.51-12.5 58.56-11.84 59.61-11.18 60.2-9.96 60.79-8.74 60.64-6.79L60.64-6.79Q60.64-5.37 59.83-4.1 59.03-2.83 57.78-1.88 56.54-0.93 55.02-0.39 53.51 0.15 52.09 0L52.09 0Q51.51-0.05 50.51-0.32 49.51-0.59 48.55-1.07 47.6-1.56 46.92-2.27 46.24-2.98 46.24-3.96ZM56 11.57L56 11.57Q56 10.25 56.44 9.57 56.88 8.89 58.49 8.89L58.49 8.89Q58.34 9.57 58.12 10.25 57.9 10.94 57.73 11.52 57.56 12.11 57.59 12.45 57.61 12.79 57.95 12.7L57.95 12.7Q59.51 13.72 61.37 14.16 63.22 14.6 65.03 14.6L65.03 14.6Q67.77 14.55 69.74 13.48 71.72 12.4 73.01 10.69 74.31 8.98 75.02 6.76 75.72 4.54 75.9 2.17 76.07-0.2 75.77-2.59 75.48-4.98 74.85-6.98L74.85-6.98Q74.02-6.05 73.16-5.03 72.31-4 71.33-3.2 70.35-2.39 69.26-1.86 68.16-1.32 66.79-1.32L66.79-1.32Q65.37-1.32 64.67-1.81 63.96-2.29 63.71-3.15 63.47-4 63.49-5.13 63.52-6.25 63.52-7.52L63.52-7.52Q63.52-8.69 63.59-10.16 63.66-11.62 63.93-13.11 64.2-14.6 64.67-16.04 65.13-17.48 65.91-18.63 66.69-19.78 67.86-20.46 69.04-21.14 70.65-21.14L70.65-21.14Q71.67-21.14 72.62-20.97 73.58-20.8 74.38-20.36 75.19-19.92 75.77-19.19 76.36-18.46 76.7-17.33L76.7-17.33Q76.9-15.14 77.19-12.57 77.48-10.01 77.68-7.25 77.87-4.49 77.87-1.71 77.87 1.07 77.51 3.66 77.14 6.25 76.29 8.52 75.43 10.79 73.89 12.52 72.36 14.26 70.06 15.31 67.77 16.36 64.54 16.46L64.54 16.46Q63.18 16.46 61.66 16.28 60.15 16.11 58.88 15.6 57.61 15.09 56.8 14.14 56 13.18 56 11.57ZM65.37-7.52L65.37-7.52Q65.37-6.98 65.32-6.3 65.28-5.62 65.37-4.93 65.47-4.25 65.79-3.76 66.11-3.27 66.84-3.22L66.84-3.22Q68.01-3.22 69.01-3.76 70.01-4.3 70.82-5.22 71.62-6.15 72.23-7.3 72.84-8.45 73.26-9.67 73.67-10.89 73.89-12.04 74.11-13.18 74.11-14.06L74.11-14.06Q74.26-14.99 74.14-15.92 74.02-16.85 73.58-17.58 73.14-18.31 72.4-18.77 71.67-19.24 70.65-19.24L70.65-19.24Q69.47-19.24 68.6-18.58 67.72-17.92 67.13-16.89 66.55-15.87 66.2-14.58 65.86-13.28 65.69-11.99 65.52-10.69 65.45-9.5 65.37-8.3 65.37-7.52ZM83.29 0.1L82.56-18.95Q83.14-18.95 83.56-18.99 83.97-19.04 84.27-18.51L84.27-18.51Q84.41-16.31 84.61-14.04 84.8-11.77 85-9.47 85.2-7.18 85.27-4.86 85.34-2.54 85.29-0.34L85.29-0.34Q85.29-0.05 85.15 0.02 85 0.1 84.73 0.07 84.46 0.05 84.1 0.02 83.73 0 83.29 0.1L83.29 0.1ZM79.73-27.69L79.73-27.69Q79.73-28.03 79.78-28.44 79.82-28.86 79.99-29.2 80.17-29.54 80.43-29.79 80.7-30.03 81.09-30.03L81.09-30.03Q81.68-30.03 82.27-29.98 82.85-29.93 83.39-29.76 83.93-29.59 84.27-29.22 84.61-28.86 84.61-28.17L84.61-28.17Q84.61-27 83.73-26.1 82.85-25.2 81.58-25.2L81.58-25.2Q80.61-25.2 80.17-25.95 79.73-26.71 79.73-27.69ZM82.56-27.44L82.56-27.44Q82.41-27.44 82.41-27.2 82.41-26.95 82.56-26.95L82.56-26.95Q82.75-26.95 82.75-27.2 82.75-27.44 82.56-27.44ZM88.02-0.24L88.02-0.24Q87.93-1.03 87.85-2.51 87.78-4 87.71-5.88 87.63-7.76 87.59-9.81 87.54-11.87 87.49-13.72 87.44-15.58 87.37-17.07 87.29-18.55 87.15-19.34L87.15-19.34Q87.15-19.38 87.12-19.58 87.1-19.78 87.07-20.02 87.05-20.26 87.05-20.43 87.05-20.61 87.05-20.7L87.05-20.7Q87.78-21.29 88.29-21.09 88.81-20.9 89.15-20.24 89.49-19.58 89.64-18.6 89.78-17.63 89.86-16.65 89.93-15.67 89.93-14.87 89.93-14.06 89.93-13.72L89.93-13.72Q90.03-14.55 90.22-15.67 90.42-16.8 90.81-17.97 91.2-19.14 91.76-20.29 92.32-21.44 93.15-22.31 93.98-23.19 95.03-23.68 96.08-24.17 97.45-24.07L97.45-24.07Q99.6-23.97 100.99-22.9 102.38-21.83 103.19-20.02 103.99-18.21 104.36-15.87 104.72-13.53 104.85-10.89 104.97-8.25 104.92-5.54 104.87-2.83 104.87-0.34L104.87-0.34Q104.43-0.24 103.99-0.02 103.55 0.2 103.26 0.17 102.97 0.15 102.84-0.27 102.72-0.68 102.92-1.9L102.92-1.9Q102.97-2.78 103.09-4.61 103.21-6.45 103.19-8.69 103.16-10.94 102.92-13.33 102.67-15.72 102.01-17.7 101.35-19.68 100.13-20.92 98.91-22.17 96.96-22.17L96.96-22.17Q94.96-21.34 93.62-19.04 92.27-16.75 91.47-13.67 90.66-10.6 90.3-7.01 89.93-3.42 89.88 0L89.88 0Q89.78-0.05 89.51-0.05 89.25-0.05 88.93-0.07 88.61-0.1 88.34-0.15 88.07-0.2 88.02-0.24ZM137.53 20.17L135.33 20.02Q135.33 17.58 135.77 14.99 136.21 12.4 136.68 9.81 137.14 7.23 137.46 4.64 137.78 2.05 137.53-0.44L137.53-0.44 125.37-21.04Q126.45-22.02 127.08-22.14 127.72-22.27 127.81-22.17L127.81-22.17Q128.16-21.68 128.96-20.36 129.77-19.04 130.82-17.29 131.87-15.53 133.04-13.57 134.21-11.62 135.26-9.86 136.31-8.11 137.07-6.74 137.82-5.37 138.12-4.83L138.12-4.83 140.36-22.95 142.8-21.73 137.53 20.17ZM144.8-8.94L144.8-8.94Q144.8-10.06 145-11.55 145.19-13.04 145.63-14.55 146.07-16.06 146.73-17.53 147.39-18.99 148.32-20.14 149.25-21.29 150.47-22 151.69-22.71 153.2-22.71L153.2-22.71Q154.77-22.71 156.11-21.63 157.45-20.56 158.4-18.85 159.36-17.14 159.84-15.04 160.33-12.94 160.23-10.94L160.23-10.94Q160.23-8.01 159.11-5.71 157.99-3.42 156.25-2 154.52-0.59 152.54-0.1 150.57 0.39 148.83-0.37 147.1-1.12 145.95-3.22 144.8-5.32 144.8-8.94ZM146.61-8.74L146.61-8.74Q146.76-5.76 147.64-4.15 148.52-2.54 149.76-2.03 151.01-1.51 152.47-2 153.94-2.49 155.2-3.74 156.47-4.98 157.38-6.86 158.28-8.74 158.38-11.08L158.38-11.08Q158.48-12.84 158.11-14.5 157.74-16.16 157.08-17.46 156.43-18.75 155.47-19.51 154.52-20.26 153.3-20.26L153.3-20.26Q152.13-20.26 151.2-19.68 150.27-19.09 149.52-18.09 148.76-17.09 148.22-15.82 147.69-14.55 147.32-13.28 146.95-12.01 146.78-10.82 146.61-9.62 146.61-8.74ZM162.67-18.95L162.67-18.95Q162.67-19.19 162.99-19.43 163.31-19.68 163.77-19.82 164.24-19.97 164.67-20.02 165.11-20.07 165.31-19.87L165.31-19.87Q165.6-13.82 166.46-10.23 167.31-6.64 168.41-4.98 169.51-3.32 170.78-3.3 172.05-3.27 173.27-4.37 174.49-5.47 175.54-7.37 176.59-9.28 177.25-11.47 177.91-13.67 178.05-15.87 178.2-18.07 177.66-19.78L177.66-19.78 180.59-20.12Q180.64-19.38 180.86-17.7 181.08-16.02 181.35-13.89 181.62-11.77 181.96-9.47 182.3-7.18 182.55-5.2 182.79-3.22 182.99-1.83 183.18-0.44 183.18-0.1L183.18-0.1 181.08-0.1 178.79-8.54Q178.1-6.84 177.13-5.27 176.15-3.71 175-2.54 173.85-1.37 172.58-0.71 171.32-0.05 170.07-0.17 168.83-0.29 167.65-1.32 166.48-2.34 165.48-4.57 164.48-6.79 163.75-10.3 163.01-13.82 162.67-18.95ZM184.74-19.04L184.74-19.04Q185.33-19.29 185.77-19.14 186.21-18.99 186.5-18.6 186.79-18.21 186.94-17.7 187.08-17.19 187.18-16.7L187.18-16.7Q187.82-17.77 189.01-18.43 190.21-19.09 191.58-19.31 192.94-19.53 194.31-19.41 195.68-19.29 196.63-18.82 197.58-18.36 197.97-17.55 198.36-16.75 197.78-15.67L197.78-15.67Q196.51-16.41 195.12-16.85 193.73-17.29 192.41-17.14 191.09-16.99 189.97-16.14 188.84-15.28 188.11-13.43 187.38-11.57 187.21-8.52 187.04-5.47 187.62-0.93L187.62-0.93 185.77-0.93Q185.77-0.93 185.69-1.73 185.62-2.54 185.55-3.86 185.47-5.18 185.35-6.79 185.23-8.4 185.13-10.06 185.03-11.72 184.96-13.26 184.89-14.79 184.79-15.92L184.79-15.92Q184.79-16.06 184.77-16.5 184.74-16.94 184.74-17.46 184.74-17.97 184.74-18.41 184.74-18.85 184.74-19.04ZM220.38-3.71L220.38-3.71Q220.62-4.3 221.14-4.44 221.65-4.59 222.24-3.71L222.24-3.71Q222.24-3.61 222.7-3.44 223.16-3.27 223.87-3.05 224.58-2.83 225.53-2.61 226.48-2.39 227.41-2.22 228.34-2.05 229.22-1.93 230.1-1.81 230.73-1.81L230.73-1.81Q232.39-1.81 233.78-2.51 235.18-3.22 236.18-4.35 237.18-5.47 237.71-6.91 238.25-8.35 238.25-9.86L238.25-9.86Q238.25-10.3 238.1-11.4 237.96-12.5 237.62-13.6 237.27-14.7 236.71-15.58 236.15-16.46 235.37-16.46L235.37-16.46Q230.29-15.87 227.05-15.99 223.8-16.11 221.89-16.75 219.99-17.38 219.23-18.48 218.48-19.58 218.43-21L218.43-21Q218.43-22.75 219.31-24.39 220.18-26.03 221.55-27.29 222.92-28.56 224.6-29.32 226.29-30.08 227.95-30.08L227.95-30.08Q229.32-30.08 230.8-29.74 232.29-29.39 233.56-28.69 234.83-27.98 235.64-26.83 236.44-25.68 236.44-24.07L236.44-24.07Q235.27-24.07 234.3-24.73 233.32-25.39 232.34-26.12 231.37-26.86 230.29-27.51 229.22-28.17 227.8-28.17L227.8-28.17Q226.63-28.17 225.43-27.59 224.24-27 223.29-26.07 222.33-25.15 221.72-24 221.11-22.85 221.11-21.63L221.11-21.63Q221.11-21.14 221.14-20.58 221.16-20.02 221.36-19.51 221.55-18.99 221.97-18.65 222.38-18.31 223.16-18.31L223.16-18.31 236.3-18.31Q237.13-18.31 237.74-17.8 238.35-17.29 238.76-16.5 239.18-15.72 239.45-14.75 239.72-13.77 239.89-12.84 240.06-11.91 240.11-11.11 240.16-10.3 240.16-9.86L240.16-9.86Q240.16-7.96 239.62-6.27 239.08-4.59 238.01-3.25 236.93-1.9 235.32-1.05 233.71-0.2 231.61 0L231.61 0Q230.59 0.1 228.95-0.05 227.31-0.2 225.65-0.61 223.99-1.03 222.53-1.78 221.06-2.54 220.38-3.71ZM243.03-33.74L244.65-33.5 245.91-17.48Q246.26-17.77 246.79-18.36 247.33-18.95 248.06-19.46 248.8-19.97 249.67-20.34 250.55-20.7 251.58-20.65L251.58-20.65Q253.58-20.46 254.78-19.04 255.97-17.63 256.58-15.58 257.19-13.53 257.39-11.11 257.58-8.69 257.51-6.49 257.44-4.3 257.27-2.59 257.1-0.88 257-0.24L257-0.24 255.24-0.49Q255.24-0.93 255.27-1.88 255.29-2.83 255.34-4.13 255.39-5.42 255.39-6.84 255.39-8.25 255.41-9.5 255.44-10.74 255.41-11.72 255.39-12.7 255.34-13.09L255.34-13.09Q255.39-14.45 254.8-15.72 254.22-16.99 253.24-17.65 252.26-18.31 250.9-18.09 249.53-17.87 247.97-16.16L247.97-16.16Q246.6-14.11 245.96-12.13 245.33-10.16 245.13-8.23 244.94-6.3 244.99-4.27 245.04-2.25 244.99 0L244.99 0 243.08-0.29Q243.23-0.83 243.3-2.27 243.38-3.71 243.42-5.74 243.47-7.76 243.5-10.25 243.52-12.74 243.5-15.41 243.47-18.07 243.42-20.75 243.38-23.44 243.3-25.88 243.23-28.32 243.16-30.37 243.08-32.42 243.03-33.74L243.03-33.74ZM262.56 0.1L261.83-18.95Q262.42-18.95 262.83-18.99 263.25-19.04 263.54-18.51L263.54-18.51Q263.69-16.31 263.88-14.04 264.08-11.77 264.27-9.47 264.47-7.18 264.54-4.86 264.61-2.54 264.56-0.34L264.56-0.34Q264.56-0.05 264.42 0.02 264.27 0.1 264 0.07 263.73 0.05 263.37 0.02 263 0 262.56 0.1L262.56 0.1ZM259-27.69L259-27.69Q259-28.03 259.05-28.44 259.1-28.86 259.27-29.2 259.44-29.54 259.71-29.79 259.97-30.03 260.37-30.03L260.37-30.03Q260.95-30.03 261.54-29.98 262.12-29.93 262.66-29.76 263.2-29.59 263.54-29.22 263.88-28.86 263.88-28.17L263.88-28.17Q263.88-27 263-26.1 262.12-25.2 260.85-25.2L260.85-25.2Q259.88-25.2 259.44-25.95 259-26.71 259-27.69ZM261.83-27.44L261.83-27.44Q261.68-27.44 261.68-27.2 261.68-26.95 261.83-26.95L261.83-26.95Q262.03-26.95 262.03-27.2 262.03-27.44 261.83-27.44ZM266.27-19.04L266.27-19.04Q266.86-19.29 267.3-19.14 267.74-18.99 268.03-18.6 268.32-18.21 268.47-17.7 268.61-17.19 268.71-16.7L268.71-16.7Q269.35-17.77 270.54-18.43 271.74-19.09 273.11-19.31 274.47-19.53 275.84-19.41 277.21-19.29 278.16-18.82 279.11-18.36 279.5-17.55 279.89-16.75 279.31-15.67L279.31-15.67Q278.04-16.41 276.65-16.85 275.26-17.29 273.94-17.14 272.62-16.99 271.5-16.14 270.37-15.28 269.64-13.43 268.91-11.57 268.74-8.52 268.57-5.47 269.15-0.93L269.15-0.93 267.3-0.93Q267.3-0.93 267.22-1.73 267.15-2.54 267.08-3.86 267-5.18 266.88-6.79 266.76-8.4 266.66-10.06 266.56-11.72 266.49-13.26 266.42-14.79 266.32-15.92L266.32-15.92Q266.32-16.06 266.3-16.5 266.27-16.94 266.27-17.46 266.27-17.97 266.27-18.41 266.27-18.85 266.27-19.04ZM287.51-17.72L287.51-17.72Q287.07-17.87 286.31-17.85 285.56-17.82 284.7-17.75 283.85-17.68 283.07-17.58 282.28-17.48 281.75-17.48L281.75-17.48Q281.5-17.48 281.43-18.19 281.36-18.9 281.21-20.12L281.21-20.12 288.09-20.61Q288.24-22.31 288.29-23.05 288.34-23.78 288.31-24.29 288.29-24.8 288.27-25.46 288.24-26.12 288.24-27.54L288.24-27.54Q289.51-27.73 290.17-27.66 290.83-27.59 291.07-27.29 291.32-27 291.29-26.44 291.27-25.88 291.15-25.05 291.02-24.22 290.95-23.05 290.88-21.88 291.02-20.41L291.02-20.41 296.88-20.61 296.88-18.21Q296.49-18.21 295.66-18.16 294.83-18.12 293.88-18.07 292.93-18.02 292.12-17.97 291.32-17.92 290.93-17.77L290.93-17.77Q290.54-16.02 290.1-14.01 289.66-12.01 289.51-10.06 289.36-8.11 289.61-6.42 289.85-4.74 290.83-3.64 291.81-2.54 293.61-2.12 295.42-1.71 298.4-2.39L298.4-2.39Q298.3-1.66 297.84-1.2 297.37-0.73 296.76-0.46 296.15-0.2 295.47-0.07 294.78 0.05 294.25 0.05L294.25 0.05Q291.76 0.05 290.29-0.85 288.83-1.76 288.09-3.22 287.36-4.69 287.17-6.57 286.97-8.45 287.04-10.4 287.12-12.35 287.31-14.26 287.51-16.16 287.51-17.72ZM304.06 0.1L304.06 0.1Q302.89-0.63 302.45-1.46 302.01-2.29 302.08-3.05 302.15-3.81 302.64-4.35 303.13-4.88 303.79-4.98 304.45-5.08 305.18-4.61 305.91-4.15 306.5-2.83L306.5-2.83Q306.5-2.34 306.33-1.83 306.16-1.32 305.84-0.9 305.52-0.49 305.06-0.2 304.6 0.1 304.06 0.1ZM304.5-2.83L304.5-2.83Q304.3-2.83 304.21-2.69 304.11-2.54 304.11-2.32 304.11-2.1 304.21-1.95 304.3-1.81 304.5-1.86L304.5-1.86Q304.94-1.95 304.94-2.32 304.94-2.69 304.5-2.83ZM299.76-31.74L299.76-31.74Q299.76-32.18 299.84-32.35 299.91-32.52 300.13-32.54 300.35-32.57 300.74-32.59 301.13-32.62 301.72-32.81L301.72-32.81 304.5-10.3Q304.4-10.25 304.06-10.16 303.72-10.06 303.57-10.06L303.57-10.06Q302.98-10.06 302.64-10.28 302.3-10.5 302.13-10.91 301.96-11.33 301.89-11.89 301.81-12.45 301.72-13.09L301.72-13.09Q301.67-13.33 301.57-14.36 301.47-15.38 301.28-16.89 301.08-18.41 300.89-20.24 300.69-22.07 300.49-23.88 300.3-25.68 300.1-27.29 299.91-28.91 299.81-29.98L299.81-29.98Q299.81-29.98 299.79-30.25 299.76-30.52 299.76-30.83 299.76-31.15 299.76-31.42 299.76-31.69 299.76-31.74Z" opacity="1" transform="matrix(1,0,0,1,0,0)" fill="#d94e28" class="slogan-text-1" data-fill-palette-color="secondary" id="text-1"></path></svg></g></svg></g></svg></g></svg></g><g transform="matrix(1,0,0,1,70.05704137358651,0)"><svg viewBox="0 0 83.88591725282697 106.34103850597378" height="106.34103850597378" width="83.88591725282697"><g><svg xmlns="http://www.w3.org/2000/svg" xmlns:xlink="http://www.w3.org/1999/xlink" version="1.1" x="0" y="0" viewBox="30.9 21.099999999999998 52.300000000000004 66.30000000000001" enable-background="new 0 0 100 100" xml:space="preserve" height="106.34103850597378" width="83.88591725282697" class="icon-icon-0" data-fill-palette-color="accent" id="icon-0"><path d="M78.4 61.5c-2.2-1.7-6.1-3.2-12.4-2V32.4h1.1c1.1 0 2-0.9 2-2v-7.3c0-1.1-0.9-2-2-2H32.9c-1.1 0-2 0.9-2 2v7.3c0 1.1 0.9 2 2 2H34v35.1h-1.1c-1.1 0-2 0.9-2 2v7.3c0 1.1 0.9 2 2 2h34.1c1.1 0 2-0.9 2-2v-7.3c0-1.1-0.9-2-2-2H66v-3.9c4.2-1 7.7-0.6 10 1.1 2 1.5 3.2 4.2 3.2 7.3 0 6-1.4 11.4-18.4 11.4-1.1 0-2 0.9-2 2s0.9 2 2 2c15.9 0 22.4-4.5 22.4-15.4C83.2 67.6 81.4 63.8 78.4 61.5zM62 60.5l-24 6.2v-2.1l24-6.2V60.5zM38 52.2L62 46v2.1l-24 6.2V52.2zM62 41.9l-24 6.2V46l24-6.2V41.9zM38 58.4l24-6.2v2.1l-24 6.2V58.4zM62 35.6l-24 6.2v-2.1l24-6.2V35.6zM62 64.7v2.8H51.2L62 64.7zM34.9 25.2h30.1v3.3H64 36h-1.1V25.2zM50.4 32.4L38 35.6v-3.2H50.4zM65.1 74.8H34.9v-3.3h30.1V74.8z" fill="#f9744c" data-fill-palette-color="accent"></path></svg></g></svg></g><g></g></svg></g></svg></g></svg></g></svg></g><defs></defs></svg><rect width="320" height="360" fill="none" stroke="none" visibility="hidden"></rect></g></svg></g></svg>