<svg width="660" height="693" viewBox="0 0 660 693" fill="none" xmlns="http://www.w3.org/2000/svg">
<path d="M525.728 402.207C508.187 389.027 477.092 377.398 426.86 386.701V176.605H435.631C444.402 176.605 451.577 169.628 451.577 161.1V104.505C451.577 95.9774 444.402 89 435.631 89H162.946C154.176 89 147 95.9774 147 104.505V161.1C147 169.628 154.176 176.605 162.946 176.605H171.717V448.723H162.946C154.176 448.723 147 455.7 147 464.228V520.822C147 529.35 154.176 536.327 162.946 536.327H434.834C443.604 536.327 450.78 529.35 450.78 520.822V464.228C450.78 455.7 443.604 448.723 434.834 448.723H426.86V418.487C460.348 410.735 488.254 413.836 506.593 427.015C522.539 438.644 532.107 459.576 532.107 483.609C532.107 530.125 520.945 571.99 385.4 571.99C376.629 571.99 369.453 578.967 369.453 587.495C369.453 596.023 376.629 603 385.4 603C512.174 603 564 568.113 564 483.609C564 449.498 549.648 420.038 525.728 402.207ZM394.967 394.454L203.61 442.52V426.24L394.967 378.174V394.454ZM203.61 330.107L394.967 282.041V298.321L203.61 346.388V330.107ZM394.967 250.255L203.61 298.321V282.041L394.967 233.974V250.255ZM203.61 378.174L394.967 330.107V346.388L203.61 394.454V378.174ZM394.967 201.413L203.61 249.48V233.199L394.967 185.133V201.413ZM394.967 427.015V448.723H308.857L394.967 427.015ZM178.893 120.786H418.887V146.369H410.914H187.664H178.893V120.786ZM302.478 176.605L203.61 201.413V176.605H302.478ZM419.684 505.317H178.893V479.733H418.887V505.317H419.684Z" fill="#F9744C"/>
</svg>
